<svg width="104" height="63" viewBox="0 0 104 63" fill="none" xmlns="http://www.w3.org/2000/svg">
<g clip-path="url(#clip0_964_17566)">
<g clip-path="url(#clip1_964_17566)">
<path d="M29.3868 22.9887C29.2701 26.6268 31.1039 28.2378 31.1492 29.261C31.1277 29.4692 31.0561 29.6693 30.9405 29.8445C30.825 30.0197 30.6688 30.165 30.4851 30.2681L28.4116 31.7072C28.1432 31.8938 27.8269 32.0007 27.4995 32.0156C27.4299 32.0124 26.1728 32.3096 24.1819 27.9021C22.9672 29.4055 21.4218 30.6133 19.6638 31.4332C17.9058 32.2531 15.982 32.6633 14.0395 32.6324C11.4022 32.7754 4.25504 31.1483 4.62277 23.6039C4.3652 17.4553 10.1403 13.6357 16.113 13.9585C17.2631 13.9618 19.6121 14.018 23.7251 14.9656V12.4567C24.1608 8.20668 21.3438 4.90911 16.4661 5.40383C16.0773 5.40543 13.3235 5.32352 9.04034 7.02771C7.84806 7.57061 7.69579 7.48067 7.29891 7.48067C6.09853 7.48067 6.59261 4.03051 6.82264 3.59362C7.66663 2.56564 12.6317 0.646211 17.5045 0.673517C20.7626 0.387814 24.0032 1.38483 26.5259 3.44906C27.5514 4.5864 28.3338 5.91801 28.8257 7.3635C29.3177 8.80898 29.5091 10.3383 29.3884 11.8592L29.3868 22.9887ZM15.3873 28.1912C20.6407 28.1157 22.8649 24.9836 23.3719 23.2971C23.7704 21.6828 23.704 20.6613 23.704 18.8961C22.1375 18.5234 19.8826 18.117 17.2955 18.1138C14.8413 17.9307 10.359 19.0181 10.5339 23.2955C10.333 25.9923 12.3353 28.339 15.3873 28.1912ZM43.0752 31.8936C41.802 32.0092 41.2091 31.1129 41.0211 30.2279L32.9539 3.78155C32.7967 3.33502 32.693 2.87403 32.6428 2.40341C32.6131 2.20939 32.6622 2.01158 32.7795 1.85346C32.8967 1.69535 33.0725 1.58985 33.2681 1.56015C33.307 1.55372 32.9231 1.56015 36.8725 1.56015C38.2948 1.4188 38.7581 2.5287 38.9055 3.2258L44.6919 25.8462L50.0636 3.2258C50.1495 2.70859 50.5399 1.44771 52.1372 1.58103H54.917C55.2685 1.55212 56.7167 1.50072 56.9711 3.24668L62.3849 26.1562L68.3576 3.24668C68.4353 2.89652 68.7982 1.42041 70.4117 1.58103H73.6062C73.7439 1.56015 74.6024 1.45093 74.4567 2.95916C74.387 3.25631 75.0091 1.24694 65.9115 30.2488C65.7252 31.1338 65.1307 32.0301 63.8574 31.9144H60.8297C59.0575 32.0992 58.8032 30.3628 58.7757 30.1878L53.4039 8.1617L48.0938 30.1653C48.0679 30.3404 47.8135 32.0767 46.0397 31.892H43.0752V31.8936ZM87.3773 32.7979C86.4248 32.7995 81.8824 32.7497 78.0853 30.8238C77.7071 30.665 77.3849 30.3984 77.1597 30.0579C76.9344 29.7173 76.8163 29.3181 76.8201 28.9108V27.1841C76.8201 25.8269 77.8245 26.0758 78.2505 26.2381C79.877 26.8902 80.9202 27.3849 82.9176 27.78C88.8547 28.9895 91.466 27.4106 92.1059 27.0605C94.2361 25.806 94.4046 22.9357 92.9563 21.4467C91.2587 20.0349 90.4487 19.9819 84.3496 18.0737C83.598 17.8665 77.2705 15.8876 77.2559 9.66352C77.1571 5.12756 81.3139 0.639785 88.5177 0.676728C90.5702 0.675122 96.0391 1.3401 97.5197 3.18564C97.7384 3.52134 97.8469 3.91647 97.8307 4.31642V5.9403C97.8307 6.65346 97.5683 7.01004 97.0418 7.01004C95.7929 6.87191 93.5768 5.2159 89.0782 5.28336C87.9621 5.22554 82.6163 5.42953 82.856 9.29409C82.7864 12.3395 87.1667 13.4815 87.6672 13.6132C93.5735 15.3752 95.5482 15.6676 97.8923 18.3644C100.669 21.9382 99.1721 26.1224 98.597 27.2693C95.5061 33.291 87.5134 32.8011 87.3773 32.7979ZM93.8894 49.6407C82.545 57.948 66.0767 62.3699 52.0157 62.3699C33.043 62.494 14.7098 55.5768 0.619903 42.9781C-0.437917 42.032 0.495168 40.7358 1.7814 41.457C17.4113 50.322 35.1076 54.9799 53.114 54.9685C66.5607 54.897 79.8606 52.1923 92.25 47.0097C94.1583 46.2066 95.7767 48.2625 93.8894 49.6407ZM98.618 44.2936C97.1666 42.4432 89.015 43.4294 85.3653 43.8615C84.2654 43.9852 84.0791 43.0391 85.0753 42.3404C91.5664 37.8157 102.227 39.1119 103.452 40.633C104.675 42.1541 103.12 52.7455 97.0434 57.8051C96.1104 58.5873 95.2178 58.1745 95.6325 57.1465C96.9997 53.7333 100.069 46.1455 98.618 44.2936Z" fill="#737373"/>
</g>
</g>
<defs>
<clipPath id="clip0_964_17566">
<rect width="104" height="62" fill="white" transform="translate(0 0.5)"/>
</clipPath>
<clipPath id="clip1_964_17566">
<rect width="104" height="62" fill="white" transform="translate(0 0.5)"/>
</clipPath>
</defs>
</svg>
